<svg height="1024" node-id="1" sillyvg="true" template-height="1024" template-width="1024" version="1.1" viewBox="0 0 1024 1024" width="1024" xmlns="http://www.w3.org/2000/svg" xmlns:xlink="http://www.w3.org/1999/xlink"><defs node-id="61"><clipPath id="clip-链接" node-id="9"><path d="M 0.00 0.00 L 1024.00 0.00 L 1024.00 1024.00 L 0.00 1024.00 Z" fill="#000000" fill-rule="nonzero" node-id="64" stroke="none" target-height="1024" target-width="1024" target-x="0" target-y="0"/></clipPath><clipPath id="clip-path" node-id="3"><path d="M 440.60 600.60 L 443.80 627.60 L 445.40 644.20 L 446.90 670.80 L 446.80 687.20 L 446.30 694.20 L 444.70 707.80 L 442.70 721.30 L 440.20 734.80 L 437.20 748.10 L 433.80 761.40 L 427.50 783.20 L 416.10 820.40 L 413.00 823.30 L 408.80 825.70 L 404.20 826.90 L 401.70 827.00 L 398.90 826.70 L 395.80 825.80 L 388.70 822.70 L 385.40 820.30 L 384.70 819.40 L 384.40 818.30 L 397.30 764.50 L 401.50 743.60 L 401.70 734.40 L 401.10 720.20 L 398.60 686.20 L 395.80 656.10 L 401.50 595.60 Z" fill="#000000" fill-rule="nonzero" id="路径_1386" node-id="4" stroke="none" target-height="231.40002" target-width="62.5" target-x="384.4" target-y="595.6"/></clipPath><clipPath id="clip-path-2" node-id="5"><path d="M 354.20 597.90 L 350.80 611.70 L 349.20 622.20 L 348.70 633.20 L 350.00 650.50 L 349.90 665.80 L 348.60 682.30 L 347.40 690.50 L 344.60 703.10 L 341.70 711.50 L 336.10 723.40 L 328.50 738.40 L 311.40 769.80 L 304.00 782.20 L 297.30 791.80 L 296.60 793.70 L 296.30 795.50 L 297.00 799.00 L 299.50 803.10 L 301.40 805.20 L 305.30 808.50 L 307.90 810.10 L 313.60 812.30 L 315.50 812.70 L 317.40 812.70 L 319.30 812.20 L 321.00 811.30 L 325.20 806.50 L 332.60 796.90 L 351.40 771.30 L 359.70 759.30 L 365.50 750.60 L 370.60 741.00 L 384.70 710.40 L 397.80 679.00 L 401.80 668.60 L 408.60 645.90 L 419.40 606.60 L 368.60 599.00 Z" fill="#000000" fill-rule="nonzero" id="路径_1390" node-id="6" stroke="none" target-height="214.79999" target-width="123.100006" target-x="296.3" target-y="597.9"/></clipPath><clipPath id="clip-path-3" node-id="7"><path d="M 405.90 428.00 L 420.80 442.30 L 427.60 429.40 L 440.80 431.00 L 446.30 432.30 L 448.30 433.20 L 449.30 434.10 L 449.60 435.40 L 450.80 449.00 L 451.20 477.50 L 450.60 499.40 L 442.10 601.20 L 433.40 604.80 L 429.20 606.30 L 418.30 609.00 L 412.00 610.10 L 405.40 610.60 L 398.50 610.60 L 391.60 610.10 L 384.80 609.00 L 378.20 607.50 L 366.40 604.10 L 357.50 600.70 L 354.80 599.40 L 352.40 597.80 L 367.80 493.40 L 374.70 452.70 L 376.20 445.00 L 378.50 436.30 L 379.60 434.10 L 381.60 432.90 L 384.50 431.70 L 391.30 430.00 L 405.90 428.00 Z" fill="#000000" fill-rule="nonzero" id="路径_1383" node-id="8" stroke="none" target-height="182.59998" target-width="98.80002" target-x="352.4" target-y="428"/></clipPath></defs><g clip-path="url(#clip-链接)" id="链接" node-id="11"><path d="M 0.00 0.00 L 1024.00 0.00 L 1024.00 1024.00 L 0.00 1024.00 Z" fill="none" fill-rule="nonzero" node-id="78" stroke="none" target-height="1024" target-width="1024" target-x="0" target-y="0"/><path d="M 505.00 850.50 L 504.70 853.10 L 503.90 855.70 L 502.50 858.30 L 500.50 860.90 L 497.70 863.60 L 494.10 866.40 L 489.60 869.30 L 484.10 872.10 L 477.50 875.00 L 463.80 879.70 L 446.70 884.00 L 434.80 886.30 L 421.80 888.30 L 407.50 889.90 L 393.30 891.00 L 378.30 891.70 L 362.50 892.00 L 346.70 891.70 L 331.70 891.00 L 317.50 889.90 L 303.20 888.30 L 290.20 886.30 L 278.30 884.00 L 261.20 879.70 L 247.50 875.00 L 240.90 872.10 L 235.40 869.30 L 230.90 866.40 L 227.30 863.60 L 224.50 860.90 L 222.50 858.30 L 221.10 855.70 L 220.30 853.10 L 220.00 850.50 L 220.30 847.90 L 221.10 845.30 L 222.50 842.70 L 224.50 840.10 L 227.30 837.40 L 230.90 834.60 L 235.40 831.70 L 240.90 828.90 L 247.50 826.00 L 261.20 821.30 L 278.30 817.00 L 290.20 814.70 L 303.20 812.70 L 317.50 811.10 L 331.70 810.00 L 346.70 809.30 L 362.50 809.00 L 378.30 809.30 L 393.30 810.00 L 407.50 811.10 L 421.80 812.70 L 434.80 814.70 L 446.70 817.00 L 463.80 821.30 L 477.50 826.00 L 484.10 828.90 L 489.60 831.70 L 494.10 834.60 L 497.70 837.40 L 500.50 840.10 L 502.50 842.70 L 503.90 845.30 L 504.70 847.90 L 505.00 850.50 Z" fill="#e1ebfa" fill-rule="nonzero" group-id="1" id="椭圆_798" node-id="13" stroke="none" target-height="83" target-width="285" target-x="220" target-y="809"/><path d="M 319.00 132.00 L 909.00 132.00 L 912.10 132.30 L 914.90 133.10 L 917.60 134.30 L 920.00 136.00 L 922.00 138.00 L 923.70 140.40 L 924.90 143.10 L 925.70 145.90 L 926.00 149.00 L 926.00 574.00 L 302.00 574.00 L 302.00 149.00 L 302.30 145.90 L 303.10 143.10 L 304.30 140.40 L 306.00 138.00 L 308.00 136.00 L 310.40 134.30 L 313.10 133.10 L 315.90 132.30 L 319.00 132.00 Z" fill="#d9e7ff" fill-rule="nonzero" group-id="2,7" id="矩形_2406" node-id="15" stroke="none" target-height="442" target-width="624" target-x="302" target-y="132"/><path d="M 319.00 132.00 L 909.00 132.00 L 912.10 132.30 L 914.90 133.10 L 917.60 134.30 L 920.00 136.00 L 922.00 138.00 L 923.70 140.40 L 924.90 143.10 L 925.70 145.90 L 926.00 149.00 L 926.00 181.00 L 302.00 181.00 L 302.00 149.00 L 302.30 145.90 L 303.10 143.10 L 304.30 140.40 L 306.00 138.00 L 308.00 136.00 L 310.40 134.30 L 313.10 133.10 L 315.90 132.30 L 319.00 132.00 Z" fill="#c6dbfc" fill-rule="nonzero" group-id="2,8" id="矩形_2407" node-id="16" stroke="none" target-height="49" target-width="624" target-x="302" target-y="132"/><path d="M 349.00 160.00 L 348.40 163.50 L 346.60 166.50 L 344.00 168.60 L 342.50 169.40 L 339.00 170.00 L 335.50 169.40 L 332.50 167.60 L 330.40 165.00 L 329.20 161.80 L 329.20 158.20 L 329.60 156.50 L 331.40 153.50 L 334.00 151.40 L 335.50 150.60 L 339.00 150.00 L 342.50 150.60 L 345.50 152.40 L 347.60 155.00 L 348.40 156.50 L 349.00 160.00 Z" fill="none" fill-rule="nonzero" group-id="2,9" id="椭圆_706" node-id="17" stroke="none" target-height="20" target-width="19.799988" target-x="329.2" target-y="150"/><path d="M 382.00 160.00 L 381.40 163.50 L 379.60 166.50 L 377.00 168.60 L 375.50 169.40 L 372.00 170.00 L 368.50 169.40 L 365.50 167.60 L 363.40 165.00 L 362.20 161.80 L 362.20 158.20 L 362.60 156.50 L 364.40 153.50 L 367.00 151.40 L 368.50 150.60 L 372.00 150.00 L 375.50 150.60 L 378.50 152.40 L 380.60 155.00 L 381.40 156.50 L 382.00 160.00 Z" fill="none" fill-rule="nonzero" group-id="2,10" id="椭圆_707" node-id="18" stroke="none" target-height="20" target-width="19.799988" target-x="362.2" target-y="150"/><path d="M 415.00 160.00 L 414.40 163.50 L 413.60 165.00 L 411.50 167.60 L 408.50 169.40 L 405.00 170.00 L 401.50 169.40 L 398.50 167.60 L 396.40 165.00 L 395.20 161.80 L 395.20 158.20 L 395.60 156.50 L 397.40 153.50 L 400.00 151.40 L 401.50 150.60 L 405.00 150.00 L 408.50 150.60 L 410.00 151.40 L 412.60 153.50 L 414.40 156.50 L 415.00 160.00 Z" fill="none" fill-rule="nonzero" group-id="2,11" id="椭圆_708" node-id="19" stroke="none" target-height="20" target-width="19.799988" target-x="395.2" target-y="150"/><path d="M 179.00 199.00 L 772.00 199.00 L 775.10 199.30 L 777.90 200.10 L 780.60 201.30 L 783.00 203.00 L 785.00 205.00 L 786.70 207.40 L 787.90 210.10 L 788.70 212.90 L 789.00 216.00 L 789.00 643.00 L 162.00 643.00 L 162.00 216.00 L 162.30 212.90 L 163.10 210.10 L 164.30 207.40 L 166.00 205.00 L 168.00 203.00 L 170.40 201.30 L 173.10 200.10 L 175.90 199.30 L 179.00 199.00 Z" fill="#eef3fe" fill-rule="nonzero" group-id="3,12" id="矩形_2406-2" node-id="21" stroke="none" target-height="444" target-width="627" target-x="162" target-y="199"/><path d="M 179.00 199.00 L 772.00 199.00 L 775.10 199.30 L 777.90 200.10 L 780.60 201.30 L 783.00 203.00 L 785.00 205.00 L 786.70 207.40 L 787.90 210.10 L 788.70 212.90 L 789.00 216.00 L 789.00 250.00 L 162.00 250.00 L 162.00 216.00 L 162.30 212.90 L 163.10 210.10 L 164.30 207.40 L 166.00 205.00 L 168.00 203.00 L 170.40 201.30 L 173.10 200.10 L 175.90 199.30 L 179.00 199.00 Z" fill="#2f7fff" fill-rule="nonzero" group-id="3,13" id="矩形_2407-2" node-id="22" stroke="none" target-height="51" target-width="627" target-x="162" target-y="199"/><path d="M 209.00 227.00 L 208.40 230.50 L 207.60 232.00 L 205.50 234.60 L 202.50 236.40 L 199.00 237.00 L 195.50 236.40 L 192.50 234.60 L 190.40 232.00 L 189.20 228.80 L 189.20 225.20 L 189.60 223.50 L 191.40 220.50 L 194.00 218.40 L 195.50 217.60 L 199.00 217.00 L 202.50 217.60 L 204.00 218.40 L 206.60 220.50 L 208.40 223.50 L 209.00 227.00 Z" fill="none" fill-rule="nonzero" group-id="3,14" id="椭圆_706-2" node-id="23" stroke="none" target-height="20" target-width="19.800003" target-x="189.2" target-y="217"/><path d="M 242.00 227.00 L 241.40 230.50 L 239.60 233.50 L 237.00 235.60 L 235.50 236.40 L 232.00 237.00 L 228.50 236.40 L 225.50 234.60 L 223.40 232.00 L 222.60 230.50 L 222.00 227.00 L 222.60 223.50 L 224.40 220.50 L 227.00 218.40 L 228.50 217.60 L 232.00 217.00 L 235.50 217.60 L 238.50 219.40 L 240.60 222.00 L 241.40 223.50 L 242.00 227.00 Z" fill="none" fill-rule="nonzero" group-id="3,15" id="椭圆_707-2" node-id="24" stroke="none" target-height="20" target-width="20" target-x="222" target-y="217"/><path d="M 275.00 227.00 L 274.40 230.50 L 273.60 232.00 L 271.50 234.60 L 268.50 236.40 L 265.00 237.00 L 261.50 236.40 L 258.50 234.60 L 256.40 232.00 L 255.20 228.80 L 255.20 225.20 L 255.60 223.50 L 257.40 220.50 L 260.00 218.40 L 261.50 217.60 L 265.00 217.00 L 268.50 217.60 L 271.50 219.40 L 273.60 222.00 L 274.40 223.50 L 275.00 227.00 Z" fill="none" fill-rule="nonzero" group-id="3,16" id="椭圆_708-2" node-id="25" stroke="none" target-height="20" target-width="19.800003" target-x="255.2" target-y="217"/><path d="M 322.00 284.00 L 618.00 284.00 L 621.10 284.30 L 623.90 285.10 L 626.60 286.30 L 629.00 288.00 L 631.00 290.00 L 632.70 292.40 L 633.90 295.10 L 634.70 297.90 L 635.00 301.00 L 635.00 606.00 L 634.70 609.10 L 633.90 611.90 L 632.70 614.60 L 631.00 617.00 L 629.00 619.00 L 626.60 620.70 L 623.90 621.90 L 621.10 622.70 L 618.00 623.00 L 322.00 623.00 L 318.90 622.70 L 316.10 621.90 L 313.40 620.70 L 311.00 619.00 L 309.00 617.00 L 307.30 614.60 L 306.10 611.90 L 305.30 609.10 L 305.00 606.00 L 305.00 301.00 L 305.30 297.90 L 306.10 295.10 L 307.30 292.40 L 309.00 290.00 L 311.00 288.00 L 313.40 286.30 L 316.10 285.10 L 318.90 284.30 L 322.00 284.00 Z" fill="#e0e5f1" fill-rule="nonzero" group-id="3,17" id="矩形_2408" node-id="26" stroke="none" target-height="339" target-width="330" target-x="305" target-y="284"/><path d="M 412.50 453.50 L 412.50 535.80 L 832.90 535.80 L 832.90 618.40" fill="none" group-id="3" id="路径_1162" node-id="27" stroke="#2edc9d" stroke-linecap="butt" stroke-width="20" target-height="164.90002" target-width="420.40002" target-x="412.5" target-y="453.5"/><path d="M 476.00 395.50 L 475.80 400.80 L 475.20 405.90 L 474.20 410.80 L 471.00 420.20 L 466.50 428.90 L 463.70 433.00 L 457.40 440.40 L 450.00 446.70 L 445.90 449.50 L 437.20 454.00 L 427.80 457.20 L 422.90 458.20 L 417.80 458.80 L 412.50 459.00 L 407.20 458.80 L 402.10 458.20 L 397.20 457.20 L 392.40 455.80 L 383.30 451.90 L 379.10 449.50 L 371.20 443.70 L 364.30 436.80 L 361.30 433.00 L 356.10 424.70 L 352.20 415.60 L 350.80 410.80 L 349.80 405.90 L 349.20 400.80 L 349.00 395.50 L 349.20 390.20 L 349.80 385.10 L 350.80 380.20 L 352.20 375.40 L 356.10 366.30 L 358.50 362.10 L 364.30 354.20 L 371.20 347.30 L 375.00 344.30 L 383.30 339.10 L 387.80 337.00 L 397.20 333.80 L 402.10 332.80 L 407.20 332.20 L 412.50 332.00 L 417.80 332.20 L 422.90 332.80 L 427.80 333.80 L 437.20 337.00 L 445.90 341.50 L 450.00 344.30 L 457.40 350.60 L 463.70 358.00 L 466.50 362.10 L 471.00 370.80 L 474.20 380.20 L 475.20 385.10 L 475.80 390.20 L 476.00 395.50 Z" fill="#307eff" fill-rule="nonzero" group-id="3,18" id="椭圆_709" node-id="28" stroke="none" target-height="127" target-width="127" target-x="349" target-y="332"/><path d="M 901.00 674.50 L 900.80 679.80 L 900.20 684.90 L 899.20 689.80 L 896.00 699.20 L 891.50 707.90 L 888.70 712.00 L 882.40 719.40 L 875.00 725.70 L 870.90 728.50 L 862.20 733.00 L 852.80 736.20 L 847.90 737.20 L 842.80 737.80 L 837.50 738.00 L 832.20 737.80 L 827.10 737.20 L 822.20 736.20 L 817.40 734.80 L 808.30 730.90 L 804.10 728.50 L 796.20 722.70 L 789.30 715.80 L 786.30 712.00 L 781.10 703.70 L 777.20 694.60 L 775.80 689.80 L 774.80 684.90 L 774.20 679.80 L 774.00 674.50 L 774.20 669.20 L 774.80 664.10 L 775.80 659.20 L 777.20 654.40 L 781.10 645.30 L 783.50 641.10 L 789.30 633.20 L 796.20 626.30 L 800.00 623.30 L 808.30 618.10 L 812.80 616.00 L 822.20 612.80 L 827.10 611.80 L 832.20 611.20 L 837.50 611.00 L 842.80 611.20 L 847.90 611.80 L 852.80 612.80 L 862.20 616.00 L 871.00 620.50 L 875.00 623.30 L 882.40 629.60 L 888.70 637.00 L 891.50 641.10 L 896.00 649.80 L 897.80 654.40 L 899.20 659.20 L 900.20 664.10 L 900.80 669.20 L 901.00 674.50 Z" fill="#307eff" fill-rule="nonzero" group-id="3,19" id="椭圆_710" node-id="29" stroke="none" target-height="127" target-width="127" target-x="774" target-y="611"/><path d="M 323.00 629.50 L 322.70 637.30 L 322.00 644.90 L 320.70 652.20 L 319.00 659.40 L 316.80 666.50 L 314.10 673.30 L 311.10 679.90 L 307.60 686.30 L 303.80 692.40 L 299.60 698.30 L 295.00 703.80 L 290.00 709.00 L 284.80 714.00 L 279.30 718.60 L 273.40 722.80 L 267.30 726.60 L 260.90 730.10 L 254.30 733.10 L 247.50 735.80 L 240.40 738.00 L 233.20 739.70 L 225.90 741.00 L 218.30 741.70 L 210.50 742.00 L 202.70 741.70 L 195.10 741.00 L 187.80 739.70 L 180.60 738.00 L 173.50 735.80 L 166.70 733.10 L 160.10 730.10 L 153.70 726.60 L 147.60 722.80 L 141.70 718.60 L 136.20 714.00 L 131.00 709.00 L 126.00 703.80 L 121.40 698.30 L 117.20 692.40 L 113.40 686.30 L 109.90 679.90 L 106.90 673.30 L 104.20 666.50 L 102.00 659.40 L 100.30 652.20 L 99.00 644.90 L 98.30 637.30 L 98.00 629.50 L 98.30 621.70 L 99.00 614.10 L 100.30 606.80 L 102.00 599.60 L 104.20 592.50 L 106.90 585.70 L 109.90 579.10 L 113.40 572.70 L 117.20 566.60 L 121.40 560.70 L 126.00 555.20 L 131.00 550.00 L 136.20 545.00 L 141.70 540.40 L 147.60 536.20 L 153.70 532.40 L 160.10 528.90 L 166.70 525.90 L 173.50 523.20 L 180.60 521.00 L 187.80 519.30 L 195.10 518.00 L 202.70 517.30 L 210.50 517.00 L 218.30 517.30 L 225.90 518.00 L 233.20 519.30 L 240.40 521.00 L 247.50 523.20 L 254.30 525.90 L 260.90 528.90 L 267.30 532.40 L 273.40 536.20 L 279.30 540.40 L 284.80 545.00 L 290.00 550.00 L 295.00 555.20 L 299.60 560.70 L 303.80 566.60 L 307.60 572.70 L 311.10 579.10 L 314.10 585.70 L 316.80 592.50 L 319.00 599.60 L 320.70 606.80 L 322.00 614.10 L 322.70 621.70 L 323.00 629.50 Z" fill="#2ddb9c" fill-rule="nonzero" group-id="4,20" id="椭圆_711" node-id="31" stroke="none" target-height="225" target-width="225" target-x="98" target-y="517"/><path d="M 253.00 571.40 L 279.60 597.90 L 199.90 677.60 L 173.30 651.00 Z" fill="none" fill-rule="nonzero" group-id="4,21" id="矩形_2409" node-id="32" stroke="none" target-height="106.19995" target-width="106.3" target-x="173.3" target-y="571.4"/><path d="M 226.40 651.00 L 199.90 677.60 L 146.70 624.50 L 173.30 597.90 Z" fill="none" fill-rule="nonzero" group-id="4,22" id="矩形_2410" node-id="33" stroke="none" target-height="79.69995" target-width="79.7" target-x="146.7" target-y="597.9"/><path d="M 722.00 533.50 L 721.70 541.70 L 720.70 549.60 L 719.10 557.20 L 717.00 564.60 L 714.20 571.90 L 711.00 578.80 L 707.20 585.40 L 703.00 591.70 L 698.30 597.60 L 693.20 603.20 L 687.60 608.30 L 681.70 613.00 L 675.40 617.20 L 668.80 621.00 L 661.90 624.20 L 654.60 627.00 L 647.20 629.10 L 639.60 630.70 L 631.70 631.70 L 623.50 632.00 L 615.30 631.70 L 607.40 630.70 L 599.80 629.10 L 592.40 627.00 L 585.10 624.20 L 578.20 621.00 L 571.60 617.20 L 565.30 613.00 L 559.40 608.30 L 553.90 603.10 L 548.70 597.60 L 544.00 591.70 L 539.80 585.40 L 536.00 578.80 L 532.80 571.90 L 530.00 564.60 L 527.90 557.20 L 526.30 549.60 L 525.30 541.70 L 525.00 533.50 L 525.30 525.30 L 526.30 517.40 L 527.90 509.80 L 530.00 502.40 L 532.80 495.10 L 536.00 488.20 L 539.80 481.60 L 544.00 475.30 L 548.70 469.40 L 553.90 463.90 L 559.40 458.70 L 565.30 454.00 L 571.60 449.80 L 578.20 446.00 L 585.10 442.80 L 592.40 440.00 L 599.80 437.90 L 607.40 436.30 L 615.30 435.30 L 623.50 435.00 L 631.70 435.30 L 639.60 436.30 L 647.20 437.90 L 654.60 440.00 L 661.90 442.80 L 668.80 446.00 L 675.40 449.80 L 681.70 454.00 L 687.60 458.70 L 693.20 463.90 L 698.30 469.40 L 703.00 475.30 L 707.20 481.60 L 711.00 488.20 L 714.20 495.10 L 717.00 502.40 L 719.10 509.80 L 720.70 517.40 L 721.70 525.30 L 722.00 533.50 Z" fill="#307eff" fill-rule="nonzero" group-id="5,23" id="椭圆_712" node-id="35" stroke="none" target-height="197" target-width="197" target-x="525" target-y="435"/><path d="M 646.10 605.60 L 643.90 605.40 L 641.80 604.70 L 639.90 603.70 L 635.80 599.90 L 632.00 596.90 L 627.60 594.40 L 625.30 593.60 L 623.10 593.30 L 621.30 593.50 L 617.40 594.90 L 611.90 598.50 L 606.40 603.50 L 604.50 604.50 L 602.40 605.10 L 600.30 605.40 L 598.20 605.20 L 596.00 604.40 L 577.50 594.10 L 575.60 592.30 L 574.30 590.60 L 573.50 588.60 L 573.20 586.40 L 573.30 584.20 L 575.10 578.60 L 575.60 574.90 L 575.30 571.50 L 574.40 568.40 L 573.00 565.50 L 571.20 562.90 L 569.00 560.70 L 566.30 558.80 L 563.40 557.40 L 560.30 556.60 L 554.40 556.00 L 552.90 555.30 L 551.50 554.10 L 549.50 550.80 L 548.80 548.50 L 547.70 541.10 L 547.20 533.60 L 547.70 526.10 L 548.80 518.60 L 550.40 514.50 L 551.50 513.00 L 552.90 511.80 L 554.40 511.10 L 560.30 510.50 L 563.40 509.70 L 566.30 508.30 L 569.00 506.50 L 571.20 504.20 L 573.00 501.60 L 574.40 498.70 L 575.30 495.60 L 575.60 492.20 L 575.10 488.60 L 573.30 482.90 L 573.20 480.70 L 573.50 478.60 L 574.30 476.50 L 575.60 474.80 L 577.50 473.10 L 597.10 462.30 L 599.30 461.60 L 603.40 461.60 L 605.50 462.20 L 607.40 463.20 L 611.50 466.90 L 617.30 471.00 L 621.80 472.80 L 623.90 473.00 L 626.00 472.80 L 630.40 471.00 L 636.20 467.00 L 640.30 463.40 L 642.20 462.40 L 644.20 461.80 L 648.40 461.80 L 650.60 462.50 L 669.50 473.10 L 671.40 474.80 L 672.70 476.50 L 673.50 478.60 L 673.80 480.70 L 673.70 482.90 L 671.90 488.60 L 671.40 492.20 L 671.70 495.60 L 672.60 498.70 L 674.00 501.60 L 675.80 504.20 L 678.00 506.50 L 680.70 508.30 L 683.60 509.70 L 686.70 510.50 L 692.60 511.10 L 694.10 511.80 L 695.50 513.00 L 697.50 516.30 L 698.20 518.60 L 699.30 526.10 L 699.80 533.60 L 699.30 541.10 L 698.20 548.50 L 696.60 552.70 L 695.50 554.10 L 694.10 555.30 L 692.60 556.00 L 686.70 556.60 L 683.60 557.40 L 680.70 558.80 L 678.00 560.70 L 675.80 562.90 L 674.00 565.50 L 672.60 568.40 L 671.70 571.50 L 671.40 574.90 L 671.90 578.60 L 673.70 584.30 L 673.80 586.40 L 673.50 588.60 L 672.70 590.60 L 671.40 592.40 L 669.50 594.10 L 650.30 604.70 L 648.10 605.40 L 646.10 605.60 Z M 623.80 509.10 L 620.40 509.30 L 617.20 510.00 L 614.20 511.00 L 611.40 512.40 L 608.80 514.20 L 606.40 516.30 L 602.60 521.20 L 601.20 524.00 L 600.10 527.00 L 599.50 530.20 L 599.30 533.60 L 599.50 536.90 L 600.10 540.10 L 601.20 543.10 L 602.60 546.00 L 604.40 548.50 L 608.80 553.00 L 611.40 554.70 L 614.20 556.20 L 617.20 557.20 L 620.40 557.80 L 623.80 558.10 L 627.10 557.80 L 630.30 557.20 L 633.30 556.20 L 636.10 554.70 L 638.70 553.00 L 643.20 548.50 L 646.30 543.10 L 647.40 540.10 L 648.00 536.90 L 648.30 533.60 L 648.00 530.20 L 647.40 527.00 L 646.30 524.00 L 644.90 521.20 L 643.20 518.60 L 641.10 516.30 L 638.70 514.20 L 636.10 512.40 L 633.30 511.00 L 630.30 510.00 L 627.10 509.30 L 623.80 509.10 Z" fill="#eff0f4" fill-rule="nonzero" group-id="5,24" id="减去_1" node-id="36" stroke="none" target-height="143.99997" target-width="152.59998" target-x="547.2" target-y="461.6"/><path d="M 296.30 796.30 L 283.80 804.60 L 280.00 807.60 L 278.80 809.10 L 277.90 810.90 L 277.40 812.90 L 277.40 814.40 L 278.60 818.00 L 282.40 824.70 L 292.10 839.50 L 299.60 849.60 L 303.20 853.60 L 307.80 857.70 L 309.60 858.80 L 312.80 860.00 L 315.60 860.50 L 318.00 860.40 L 320.30 859.80 L 322.20 858.70 L 323.60 857.10 L 324.70 855.20 L 325.20 852.80 L 325.30 850.00 L 324.70 846.70 L 323.50 843.30 L 320.10 837.10 L 315.30 829.50 L 315.30 810.20 Z" fill="#f9aa03" fill-rule="nonzero" group-id="6,25" id="路径_1391" node-id="39" stroke="none" target-height="64.20001" target-width="47.899994" target-x="277.4" target-y="796.3"/><path d="M 387.20 818.50 L 387.50 828.80 L 387.20 832.20 L 386.70 833.30 L 381.10 840.60 L 379.80 843.00 L 378.90 845.50 L 378.60 848.30 L 378.90 850.80 L 379.60 852.60 L 380.60 854.00 L 383.80 856.30 L 386.00 857.20 L 409.80 866.40 L 423.60 871.10 L 431.30 872.50 L 434.00 872.40 L 436.80 871.70 L 439.00 870.80 L 440.70 869.70 L 442.20 868.30 L 443.10 866.70 L 443.60 865.00 L 443.60 863.10 L 443.00 861.10 L 441.90 858.80 L 440.30 856.90 L 437.70 854.70 L 431.20 850.40 L 418.40 842.70 L 416.30 841.00 L 415.50 839.90 L 414.40 836.20 L 410.60 819.60 Z" fill="#f9aa03" fill-rule="nonzero" group-id="6,25" id="路径_1392" node-id="40" stroke="none" target-height="54" target-width="65" target-x="378.6" target-y="818.5"/><path d="M 440.60 600.60 L 443.80 627.60 L 445.40 644.20 L 446.90 670.80 L 446.80 687.20 L 446.30 694.20 L 444.70 707.80 L 442.70 721.30 L 440.20 734.80 L 437.20 748.10 L 433.80 761.40 L 427.50 783.20 L 416.10 820.40 L 413.00 823.30 L 408.80 825.70 L 404.20 826.90 L 401.70 827.00 L 398.90 826.70 L 395.80 825.80 L 388.70 822.70 L 385.40 820.30 L 384.70 819.40 L 384.40 818.30 L 397.30 764.50 L 401.50 743.60 L 401.70 734.40 L 401.10 720.20 L 398.60 686.20 L 395.80 656.10 L 401.50 595.60 Z" fill="#1e2889" fill-rule="nonzero" group-id="6,25" id="路径_1384" node-id="41" stroke="none" target-height="231.40002" target-width="62.5" target-x="384.4" target-y="595.6"/><g clip-path="url(#clip-path)" group-id="6,25,28" id="蒙版组_14" node-id="42"><path d="M 415.70 605.20 L 416.60 644.10 L 416.10 662.40 L 412.40 687.80 L 407.50 713.50 L 405.00 723.80 L 402.50 730.10 L 401.60 730.50 L 400.00 728.90 L 398.40 726.00 L 394.20 715.50 L 387.10 693.90 L 375.10 652.20 Z" fill="#171e6f" fill-rule="nonzero" group-id="6,25,28" id="路径_1385" node-id="43" stroke="none" target-height="125.29999" target-width="41.5" target-x="375.1" target-y="605.2"/></g><path d="M 354.20 597.90 L 350.80 611.70 L 349.20 622.20 L 348.70 633.20 L 350.00 650.50 L 349.90 665.80 L 348.60 682.30 L 347.40 690.50 L 344.60 703.10 L 341.70 711.50 L 336.10 723.40 L 328.50 738.40 L 311.40 769.80 L 304.00 782.20 L 297.30 791.80 L 296.60 793.70 L 296.30 795.50 L 297.00 799.00 L 299.50 803.10 L 301.40 805.20 L 305.30 808.50 L 307.90 810.10 L 313.60 812.30 L 315.50 812.70 L 317.40 812.70 L 319.30 812.20 L 321.00 811.30 L 325.20 806.50 L 332.60 796.90 L 351.40 771.30 L 359.70 759.30 L 365.50 750.60 L 370.60 741.00 L 384.70 710.40 L 397.80 679.00 L 401.80 668.60 L 408.60 645.90 L 419.40 606.60 L 368.60 599.00 Z" fill="#0441bd" fill-rule="nonzero" group-id="6,25" id="路径_1387" node-id="44" stroke="none" target-height="214.79999" target-width="123.100006" target-x="296.3" target-y="597.9"/><path d="M 360.10 617.80 L 381.40 623.30 L 384.20 624.20 L 384.50 625.40 L 384.20 626.30 L 383.20 627.30 L 381.80 628.00 L 379.30 628.50 L 376.30 628.50 L 371.50 627.80 L 368.20 626.90 L 364.00 625.00 L 361.90 623.30 L 360.70 621.70 L 360.10 620.10 L 360.10 617.80 Z" fill="#152175" fill-rule="nonzero" group-id="6,25" id="路径_1388" node-id="45" stroke="none" target-height="10.700012" target-width="24.399994" target-x="360.1" target-y="617.8"/><g clip-path="url(#clip-path-2)" group-id="6,25,29" id="蒙版组_15" node-id="46"><path d="M 357.90 763.90 L 371.80 723.30 L 381.40 691.80 L 391.20 650.80 L 405.90 595.40 L 425.90 606.60 L 413.60 679.10 L 386.00 742.60 Z" fill="#033fa7" fill-rule="nonzero" group-id="6,25,29" id="路径_1389" node-id="47" stroke="none" target-height="168.5" target-width="68" target-x="357.9" target-y="595.4"/></g><path d="M 408.90 405.00 L 408.90 428.10 L 402.90 428.10 L 416.00 441.30 L 426.70 446.30 L 426.70 407.80 L 413.90 399.70 Z" fill="#ee908b" fill-rule="nonzero" group-id="6,26" id="路径_1374" node-id="49" stroke="none" target-height="46.599976" target-width="23.800018" target-x="402.9" target-y="399.7"/><path d="M 408.70 396.20 L 413.90 402.10 L 419.00 407.30 L 424.60 412.10 L 427.40 414.00 L 432.70 416.00 L 439.20 417.20 L 442.40 417.10 L 444.40 416.60 L 446.20 415.80 L 447.90 414.50 L 449.20 412.80 L 450.40 410.50 L 451.30 407.40 L 452.70 398.30 L 453.70 387.90 L 454.60 368.30 L 442.00 361.40 L 422.10 366.90 L 400.20 382.00 Z" fill="#feaba5" fill-rule="nonzero" group-id="6,26" id="路径_1375" node-id="50" stroke="none" target-height="55.80002" target-width="54.399994" target-x="400.2" target-y="361.4"/><path d="M 439.20 367.70 L 439.80 367.40 L 441.70 367.60 L 453.70 370.90 L 454.10 372.60 L 453.70 382.40 L 457.20 381.50 L 459.30 380.50 L 461.40 379.10 L 463.30 377.00 L 464.20 375.40 L 464.90 373.40 L 465.20 370.90 L 465.10 367.30 L 464.50 365.00 L 463.60 363.00 L 460.00 358.00 L 459.60 352.90 L 458.70 349.40 L 457.00 347.40 L 454.00 345.70 L 448.90 344.70 L 438.10 343.80 L 436.60 343.40 L 434.80 342.70 L 427.70 338.70 L 423.20 337.50 L 419.70 337.60 L 416.40 338.30 L 413.10 339.40 L 410.30 340.90 L 405.90 344.30 L 400.50 350.50 L 392.10 355.30 L 389.90 358.00 L 388.90 360.40 L 388.20 366.20 L 389.20 378.40 L 386.60 389.50 L 386.50 392.10 L 387.10 395.50 L 389.30 399.30 L 392.60 402.60 L 395.60 404.40 L 398.40 405.60 L 401.10 406.20 L 404.30 406.30 L 406.10 407.80 L 408.30 410.90 L 409.10 411.60 L 410.10 411.90 L 412.70 411.10 L 415.50 409.10 L 416.70 407.80 L 417.60 405.40 L 417.00 403.40 L 416.20 403.50 L 415.00 402.70 L 412.60 399.60 L 411.60 397.50 L 410.20 392.80 L 410.20 390.70 L 411.10 388.20 L 413.10 386.60 L 417.00 386.00 L 425.90 382.70 L 431.60 379.30 L 434.20 377.00 L 436.40 374.40 L 438.50 370.10 L 439.20 367.70 Z" fill="#1c258a" fill-rule="nonzero" group-id="6,26" id="路径_1376" node-id="51" stroke="none" target-height="74.399994" target-width="78.70001" target-x="386.5" target-y="337.5"/><path d="M 552.30 422.70 L 556.50 414.40 L 560.80 407.20 L 563.30 403.60 L 567.50 398.70 L 570.60 396.60 L 576.20 394.70 L 578.70 394.30 L 580.60 394.40 L 581.60 394.80 L 582.40 395.50 L 583.00 397.80 L 582.10 402.00 L 580.70 405.30 L 577.60 409.80 L 571.30 416.30 L 569.80 418.60 L 563.00 432.40 Z" fill="#f9aa9c" fill-rule="nonzero" group-id="6,27" id="路径_1377" node-id="53" stroke="none" target-height="38.100006" target-width="30.700012" target-x="552.3" target-y="394.3"/><path d="M 446.80 432.40 L 449.50 434.90 L 465.20 452.00 L 468.00 454.70 L 478.60 463.80 L 484.00 467.20 L 487.10 468.20 L 491.60 468.70 L 494.40 468.50 L 498.00 467.70 L 501.60 466.50 L 505.10 464.90 L 510.30 461.80 L 515.10 458.20 L 523.80 450.50 L 529.70 444.80 L 550.70 422.50 L 554.10 422.60 L 556.20 423.00 L 558.20 423.80 L 560.10 425.10 L 561.60 426.90 L 562.60 428.60 L 563.40 431.80 L 563.30 433.10 L 562.90 433.90 L 547.40 452.50 L 534.40 467.50 L 523.90 478.60 L 516.30 485.10 L 509.20 489.20 L 505.40 490.80 L 501.30 491.90 L 496.80 492.50 L 493.80 492.50 L 486.90 491.40 L 481.60 490.00 L 476.10 488.00 L 465.60 483.30 L 456.70 478.40 L 448.10 473.20 Z" fill="#5bb6fe" fill-rule="nonzero" group-id="6,27" id="路径_1378" node-id="54" stroke="none" target-height="70" target-width="116.60004" target-x="446.8" target-y="422.5"/><path d="M 405.90 428.00 L 420.80 442.30 L 427.60 429.40 L 440.80 431.00 L 446.30 432.30 L 448.30 433.20 L 449.30 434.10 L 449.60 435.40 L 450.80 449.00 L 451.20 477.50 L 450.60 499.40 L 442.10 601.20 L 433.40 604.80 L 429.20 606.30 L 418.30 609.00 L 412.00 610.10 L 405.40 610.60 L 398.50 610.60 L 391.60 610.10 L 384.80 609.00 L 378.20 607.50 L 366.40 604.10 L 357.50 600.70 L 354.80 599.40 L 352.40 597.80 L 367.80 493.40 L 374.70 452.70 L 376.20 445.00 L 378.50 436.30 L 379.60 434.10 L 381.60 432.90 L 384.50 431.70 L 391.30 430.00 L 405.90 428.00 Z" fill="#3b96ff" fill-rule="nonzero" group-id="6,27" id="路径_1379" node-id="55" stroke="none" target-height="182.59998" target-width="98.80002" target-x="352.4" target-y="428"/><path d="M 362.40 599.60 L 362.10 617.70 L 362.40 621.50 L 362.90 622.70 L 365.20 625.40 L 367.60 627.00 L 370.60 628.40 L 372.70 628.90 L 377.00 629.10 L 379.00 628.50 L 380.60 627.40 L 381.90 625.80 L 383.60 621.70 L 384.40 615.30 L 384.30 611.50 L 383.80 608.70 L 382.90 605.90 L 380.40 601.10 L 377.00 596.20 Z" fill="#f9aa9c" fill-rule="nonzero" group-id="6,27" id="路径_1380" node-id="56" stroke="none" target-height="32.899963" target-width="22.299988" target-x="362.1" target-y="596.2"/><path d="M 378.10 433.90 L 380.20 433.50 L 381.60 433.80 L 383.40 434.70 L 385.10 435.90 L 386.80 437.90 L 388.20 440.30 L 389.50 443.70 L 390.50 450.50 L 390.60 454.20 L 390.20 459.70 L 389.30 465.20 L 386.60 475.60 L 370.40 516.70 L 368.30 524.40 L 367.90 528.00 L 368.00 537.60 L 368.50 543.20 L 370.10 554.70 L 378.80 595.60 L 375.90 598.30 L 373.70 599.80 L 371.20 601.00 L 368.30 601.70 L 363.10 601.80 L 358.20 600.30 L 345.40 537.80 L 344.80 533.60 L 344.70 528.80 L 346.00 519.00 L 348.20 509.40 L 352.80 494.30 L 359.90 473.70 L 370.70 443.90 L 372.70 440.20 L 375.20 436.90 L 378.10 433.90 Z" fill="#5bb6fe" fill-rule="nonzero" group-id="6,27" id="路径_1381" node-id="57" stroke="none" target-height="168.29999" target-width="45.899994" target-x="344.7" target-y="433.5"/><g clip-path="url(#clip-path-3)" group-id="6,27,30" id="蒙版组_13" node-id="58"><path d="M 435.30 428.00 L 436.50 441.90 L 437.20 465.10 L 436.60 483.90 L 435.80 493.50 L 434.60 503.00 L 432.80 512.00 L 428.60 528.90 L 423.30 547.80 L 412.10 585.10 L 402.90 614.10 L 436.70 608.10 L 452.40 601.70 L 461.30 519.90 L 455.20 433.10 Z" fill="#3f8afd" fill-rule="nonzero" group-id="6,27,30" id="路径_1382" node-id="59" stroke="none" target-height="186.09998" target-width="58.399994" target-x="402.9" target-y="428"/></g></g></svg>